<svg xmlns="http://www.w3.org/2000/svg" viewBox="0 0 522.05 490"><defs><style>.a{fill:#5e7e79;}.b{fill:none;stroke:#f88100;stroke-miterlimit:10;stroke-width:20px;}.c{fill:#f88100;}</style></defs><path class="a" d="M477.53,422.9C506.33,392,522,353.8,522,314c0-49.8-24.6-94.9-64-126.9C457.13,301.2,349.83,394,218,394h-89.2c34.5,56.9,104.6,96,185.2,96H506a16,16,0,0,0,14.8-9.9,15.83,15.83,0,0,0-3.5-17.4Z"/><path class="b" d="M218,10C103.33,10,10,88.9,10,186c0,39.8,15.7,77.9,44.5,108.9l-39.8,39.8A16,16,0,0,0,26,362H218c114.7,0,208-78.9,208-176S332.73,10,218,10Z"/><path class="c" d="M314,138H122a16,16,0,1,0,0,32H314a16,16,0,0,0,0-32Z"/><path class="c" d="M250,202H122a16,16,0,1,0,0,32H250a16,16,0,0,0,0-32Z"/></svg>